<svg width="17" height="17" viewBox="0 0 17 17" fill="none" xmlns="http://www.w3.org/2000/svg">
<path d="M6.22839 6.712V8.29224H3.85802V15.4034H14.9197V8.29224H12.5494V6.712H14.9197C15.3389 6.712 15.7408 6.87849 16.0371 7.17484C16.3335 7.47119 16.5 7.87314 16.5 8.29224V15.4034C16.5 15.8225 16.3335 16.2244 16.0371 16.5208C15.7408 16.8171 15.3389 16.9836 14.9197 16.9836H3.85802C3.43891 16.9836 3.03697 16.8171 2.74061 16.5208C2.44426 16.2244 2.27777 15.8225 2.27777 15.4034V8.29224C2.27777 7.87314 2.44426 7.47119 2.74061 7.17484C3.03697 6.87849 3.43891 6.712 3.85802 6.712H6.22839ZM10.0874 1.5517L12.7414 4.20494C12.8896 4.35319 12.9729 4.55428 12.9729 4.76395C12.9729 4.97362 12.8896 5.1747 12.7414 5.32296C12.5931 5.47122 12.392 5.55451 12.1824 5.55451C11.9727 5.55451 11.7716 5.47122 11.6234 5.32296L10.179 3.87782V11.4527C10.179 11.6623 10.0958 11.8633 9.94758 12.0114C9.79941 12.1596 9.59844 12.2429 9.38888 12.2429C9.17933 12.2429 8.97836 12.1596 8.83018 12.0114C8.682 11.8633 8.59876 11.6623 8.59876 11.4527V3.87782L7.15441 5.32296C7.081 5.39637 6.99385 5.4546 6.89794 5.49433C6.80202 5.53406 6.69922 5.55451 6.5954 5.55451C6.49158 5.55451 6.38878 5.53406 6.29287 5.49433C6.19695 5.4546 6.1098 5.39637 6.03639 5.32296C5.96298 5.24955 5.90475 5.1624 5.86502 5.06648C5.82529 4.97057 5.80484 4.86777 5.80484 4.76395C5.80484 4.66013 5.82529 4.55733 5.86502 4.46141C5.90475 4.3655 5.96298 4.27835 6.03639 4.20494L8.6912 1.5517C8.8764 1.36666 9.12748 1.26273 9.38928 1.26273C9.65107 1.26273 9.90215 1.36666 10.0874 1.5517Z" fill="#FFC510"/>
</svg>
