<svg width="33" height="24" viewBox="0 0 33 24" fill="none" xmlns="http://www.w3.org/2000/svg">
<path d="M7.07132 0.477021C7.22266 0.628194 7.34272 0.807715 7.42464 1.00532C7.50655 1.20292 7.54872 1.41474 7.54872 1.62865C7.54872 1.84256 7.50655 2.05437 7.42464 2.25198C7.34272 2.44958 7.22266 2.6291 7.07132 2.78028C4.62879 5.22322 3.25663 8.53631 3.25663 11.9909C3.25663 15.4454 4.62879 18.7585 7.07132 21.2014C7.22679 21.3516 7.35079 21.5312 7.4361 21.7298C7.52141 21.9284 7.56631 22.142 7.56819 22.3581C7.57007 22.5742 7.52888 22.7886 7.44704 22.9886C7.3652 23.1887 7.24433 23.3704 7.0915 23.5232C6.93866 23.6761 6.75692 23.7969 6.55688 23.8788C6.35684 23.9606 6.1425 24.0018 5.92637 23.9999C5.71024 23.9981 5.49664 23.9532 5.29805 23.8679C5.09946 23.7825 4.91985 23.6585 4.76969 23.5031C-1.5899 17.1451 -1.5899 6.83498 4.76969 0.477021C5.07494 0.171866 5.48889 0.000439311 5.92051 0.000439311C6.35213 0.000439311 6.76608 0.171866 7.07132 0.477021ZM27.7957 0.477021C34.1537 6.83661 34.1537 17.1451 27.7957 23.5031C27.4905 23.8085 27.0765 23.9802 26.6447 23.9803C26.2129 23.9805 25.7987 23.8091 25.4933 23.5039C25.1879 23.1987 25.0162 22.7846 25.016 22.3528C25.0159 21.921 25.1873 21.5069 25.4925 21.2014C27.935 18.7585 29.3072 15.4454 29.3072 11.9909C29.3072 8.53631 27.935 5.22322 25.4925 2.78028C25.1871 2.47485 25.0155 2.06059 25.0155 1.62865C25.0155 1.1967 25.1871 0.782451 25.4925 0.477021C25.7979 0.17159 26.2122 8.51465e-09 26.6441 0C27.0761 -8.51465e-09 27.4903 0.17159 27.7957 0.477021ZM11.9008 5.15515C12.206 5.4604 12.3774 5.87435 12.3774 6.30597C12.3774 6.73759 12.206 7.15153 11.9008 7.45678C11.3083 8.0493 10.8382 8.75274 10.5175 9.52693C10.1968 10.3011 10.0317 11.1309 10.0317 11.9689C10.0317 12.8069 10.1968 13.6367 10.5175 14.4108C10.8382 15.185 11.3083 15.8885 11.9008 16.481C12.052 16.6322 12.1718 16.8117 12.2536 17.0093C12.3353 17.2069 12.3774 17.4186 12.3773 17.6324C12.3772 17.8462 12.335 18.0579 12.2531 18.2554C12.1712 18.4529 12.0513 18.6323 11.9 18.7834C11.7488 18.9346 11.5693 19.0544 11.3717 19.1362C11.1742 19.2179 10.9624 19.26 10.7486 19.2599C10.5348 19.2598 10.3231 19.2176 10.1256 19.1357C9.92814 19.0538 9.74871 18.9339 9.59758 18.7826C7.79051 16.9755 6.77531 14.5245 6.77531 11.9689C6.77531 9.41325 7.79051 6.96229 9.59758 5.15515C9.74875 5.00381 9.92827 4.88375 10.1259 4.80184C10.3235 4.71992 10.5353 4.67776 10.7492 4.67776C10.9631 4.67776 11.1749 4.71992 11.3725 4.80184C11.5701 4.88375 11.7497 5.00381 11.9008 5.15515ZM23.2267 5.15515C25.0337 6.96229 26.0489 9.41325 26.0489 11.9689C26.0489 14.5245 25.0337 16.9755 23.2267 18.7826C22.9197 19.0791 22.5085 19.2432 22.0817 19.2395C21.6549 19.2358 21.2467 19.0646 20.9449 18.7628C20.6431 18.461 20.4719 18.0527 20.4682 17.6259C20.4645 17.1992 20.6285 16.788 20.925 16.481C21.5176 15.8885 21.9877 15.185 22.3084 14.4108C22.6291 13.6367 22.7941 12.8069 22.7941 11.9689C22.7941 11.1309 22.6291 10.3011 22.3084 9.52693C21.9877 8.75274 21.5176 8.0493 20.925 7.45678C20.6285 7.14979 20.4645 6.73862 20.4682 6.31183C20.4719 5.88504 20.6431 5.47678 20.9449 5.17498C21.2467 4.87319 21.6549 4.702 22.0817 4.69829C22.5085 4.69458 22.9197 4.85865 23.2267 5.15515ZM16.4129 9.664C16.7336 9.664 17.0511 9.72715 17.3473 9.84986C17.6435 9.97256 17.9127 10.1524 18.1394 10.3791C18.3661 10.6059 18.546 10.875 18.6687 11.1712C18.7914 11.4675 18.8546 11.785 18.8546 12.1056C18.8546 12.4263 18.7914 12.7438 18.6687 13.04C18.546 13.3362 18.3661 13.6054 18.1394 13.8321C17.9127 14.0588 17.6435 14.2387 17.3473 14.3614C17.0511 14.4841 16.7336 14.5472 16.4129 14.5472C15.7654 14.5472 15.1443 14.29 14.6865 13.8321C14.2286 13.3742 13.9713 12.7532 13.9713 12.1056C13.9713 11.4581 14.2286 10.837 14.6865 10.3791C15.1443 9.92124 15.7654 9.664 16.4129 9.664Z" fill="#FFC510"/>
</svg>
