<svg width="50" height="48" viewBox="0 0 50 48" fill="none" xmlns="http://www.w3.org/2000/svg">
<path fill-rule="evenodd" clip-rule="evenodd" d="M25 35.3681C29.6411 35.3681 34.0922 33.5049 37.374 30.1885C40.6557 26.8721 42.4994 22.3741 42.4994 17.684C42.4994 12.9939 40.6557 8.49593 37.374 5.17953C34.0922 1.86313 29.6411 0 25 0C20.3589 0 15.9078 1.86313 12.626 5.17953C9.34426 8.49593 7.50058 12.9939 7.50058 17.684C7.50058 22.3741 9.34426 26.8721 12.626 30.1885C15.9078 33.5049 20.3589 35.3681 25 35.3681ZM25 10.1052C24.29 10.1052 23.815 10.9641 22.8651 12.6896L22.6201 13.1342C22.3501 13.6243 22.2151 13.8668 22.0051 14.0285C21.7926 14.1902 21.5301 14.2508 21.0051 14.3695L20.5302 14.4807C18.6852 14.9026 17.7627 15.1123 17.5428 15.8247C17.3228 16.5396 17.9527 17.2823 19.2102 18.7678L19.5352 19.1518C19.8927 19.5737 20.0727 19.7834 20.1527 20.0461C20.2327 20.3088 20.2052 20.5893 20.1527 21.1526L20.1027 21.6655C19.9127 23.6486 19.8177 24.6414 20.3902 25.081C20.9651 25.5206 21.8301 25.1189 23.5576 24.3155L24.0025 24.1084C24.495 23.881 24.74 23.7673 25 23.7673C25.26 23.7673 25.505 23.881 25.9975 24.1084L26.4425 24.3155C28.1699 25.1214 29.0349 25.5206 29.6099 25.081C30.1848 24.6414 30.0873 23.6486 29.8973 21.6655L29.8473 21.1526C29.7948 20.5893 29.7673 20.3088 29.8473 20.0461C29.9273 19.7859 30.1073 19.5737 30.4648 19.1518L30.7898 18.7678C32.0473 17.2823 32.6773 16.5396 32.4573 15.8247C32.2373 15.1123 31.3148 14.9026 29.4699 14.4807L28.9949 14.3695C28.4699 14.2508 28.2074 14.1927 27.9949 14.0285C27.7849 13.8668 27.6499 13.6243 27.3799 13.1342L27.1349 12.6896C26.185 10.9641 25.71 10.1052 25 10.1052Z" fill="black"/>
<path d="M6.23811 27.7767L2.48074 31.7051C1.13078 33.1198 0.455804 33.8246 0.220811 34.4234C-0.311671 35.7876 0.145814 37.2983 1.30328 38.0157C1.81326 38.329 2.72823 38.4275 4.56567 38.6221C5.60064 38.7332 6.12062 38.7888 6.5531 38.9581C7.52557 39.3345 8.27805 40.1252 8.64053 41.1408C8.80053 41.5955 8.85303 42.1361 8.95802 43.2199C9.14552 45.1399 9.24051 46.0999 9.54051 46.6329C10.2255 47.8455 11.6729 48.323 12.9754 47.7647C13.5454 47.5222 14.2204 46.8148 15.5728 45.4026L21.7776 38.9101C18.5091 38.4024 15.4027 37.1316 12.7052 35.1985C10.0076 33.2654 7.79334 30.7259 6.23811 27.7767ZM28.2249 38.9126L34.4297 45.4051C35.7796 46.8199 36.4546 47.5247 37.0246 47.7698C38.3271 48.3255 39.7745 47.8481 40.4595 46.6354C40.7595 46.1049 40.852 45.1449 41.0395 43.225C41.147 42.1387 41.1995 41.598 41.3595 41.1433C41.7195 40.1277 42.4744 39.337 43.4469 38.9606C43.8794 38.7913 44.3969 38.7383 45.4343 38.6271C47.2693 38.4301 48.1867 38.3315 48.6967 38.0183C49.8542 37.3008 50.3117 35.7876 49.7792 34.4259C49.5442 33.8272 48.8692 33.1198 47.5193 31.7076L43.7619 27.7767C42.2067 30.7259 39.9923 33.268 37.2948 35.201C34.5973 37.1341 31.4909 38.4049 28.2224 38.9126H28.2249Z" fill="black"/>
</svg>
