<svg width="34" height="24" viewBox="0 0 34 24" fill="none" xmlns="http://www.w3.org/2000/svg">
<path d="M3.6 0C1.626 0 0 1.626 0 3.6V20.4C0 22.374 1.626 24 3.6 24H30C31.974 24 33.6 22.374 33.6 20.4V3.6C33.6 1.626 31.974 0 30 0H3.6ZM3.6 2.4H30C30.6792 2.4 31.2 2.9208 31.2 3.6V20.4C31.2 21.0792 30.6792 21.6 30 21.6H3.6C2.9208 21.6 2.4 21.0792 2.4 20.4V3.6C2.4 2.9208 2.9208 2.4 3.6 2.4ZM10.8 4.8C8.16 4.8 6 6.96 6 9.6C6 10.9356 6.5724 12.1404 7.4628 13.0128C6.64599 13.564 5.97635 14.3066 5.51224 15.1758C5.04812 16.0451 4.80361 17.0146 4.8 18H7.2C7.2 15.9984 8.7984 14.4 10.8 14.4C12.8016 14.4 14.4 15.9984 14.4 18H16.8C16.7964 17.0146 16.5519 16.0451 16.0878 15.1758C15.6236 14.3066 14.954 13.564 14.1372 13.0128C15.0276 12.1404 15.6 10.9368 15.6 9.6C15.6 6.96 13.44 4.8 10.8 4.8ZM19.2 6V8.4H28.8V6H19.2ZM10.8 7.2C12.1404 7.2 13.2 8.2596 13.2 9.6C13.2 10.9404 12.1404 12 10.8 12C9.4596 12 8.4 10.9404 8.4 9.6C8.4 8.2596 9.4596 7.2 10.8 7.2ZM19.2 10.8V13.2H28.8V10.8H19.2ZM19.2 15.6V18H25.2V15.6H19.2Z" fill="black"/>
</svg>
