<svg width="49" height="44" viewBox="0 0 49 44" fill="none" xmlns="http://www.w3.org/2000/svg">
<path d="M24.0909 12.18L28.9909 15.16L27.6909 9.54L32.0909 5.78L26.3109 5.28L24.0909 0L21.8309 5.28L16.0909 5.78L20.4509 9.54L19.0909 15.16L24.0909 12.18ZM8.09091 24.18L12.9909 27.16L11.6909 21.54L16.0909 17.78L10.3109 17.28L8.09091 12L5.83091 17.28L0.0909119 17.78L4.45091 21.54L3.09091 27.16L8.09091 24.18ZM40.0909 18.18L44.9909 21.16L43.6909 15.54L48.0909 11.78L42.3109 11.28L40.0909 6L37.8309 11.28L32.0909 11.78L36.4509 15.54L35.0909 21.16L40.0909 18.18ZM30.0909 44H18.0909V18H30.0909V44ZM14.0909 44H2.09091V32H14.0909V44ZM46.0909 44H34.0909V24H46.0909V44Z" fill="black"/>
</svg>
