<svg width="84" height="72" viewBox="0 0 84 72" fill="none" xmlns="http://www.w3.org/2000/svg">
<path d="M72.9234 41.2312C75.6447 41.1913 78.2434 40.0925 80.1679 38.168C82.0924 36.2435 83.1912 33.6448 83.2312 30.9234V10.3078H57.4617V6.26204C57.4583 5.43632 57.2923 4.61935 56.9732 3.85777C56.6541 3.0962 56.1881 2.40494 55.6018 1.82346C55.0156 1.24198 54.3205 0.781665 53.5563 0.468804C52.7922 0.155944 51.9739 -0.00333801 51.1481 5.30268e-05H32.8518C32.0261 -0.00333801 31.2078 0.155944 30.4436 0.468804C29.6795 0.781665 28.9844 1.24198 28.3981 1.82346C27.8119 2.40494 27.3459 3.0962 27.0268 3.85777C26.7076 4.61935 26.5417 5.43632 26.5383 6.26204V10.3078H0.768799V30.9234C0.809339 33.6669 1.92597 36.2846 3.87812 38.2127C5.83027 40.1407 8.46168 41.2248 11.2054 41.2312H21.5132V35.8712H26.6671V50.5598C26.6671 51.2432 26.3956 51.8987 25.9124 52.382C25.4291 52.8652 24.7736 53.1367 24.0902 53.1367C23.4067 53.1367 22.7513 52.8652 22.268 52.382C21.7847 51.8987 21.5132 51.2432 21.5132 50.5598V46.5397H11.2312C7.36302 46.5335 3.63483 45.0918 0.768799 42.4939V66.8461C0.768799 68.213 1.3118 69.5239 2.27834 70.4905C3.24488 71.457 4.5558 72 5.9227 72H78.0773C79.4442 72 80.7551 71.457 81.7216 70.4905C82.6882 69.5239 83.2312 68.213 83.2312 66.8461V42.4939C80.3731 45.1047 76.6397 46.5484 72.7687 46.5397H67.7695V41.2312H72.9234ZM31.6922 6.26204C31.7055 5.96351 31.8335 5.68162 32.0495 5.47518C32.2656 5.26873 32.553 5.15366 32.8518 5.15395H51.1481C51.447 5.15366 51.7344 5.26873 51.9504 5.47518C52.1665 5.68162 52.2945 5.96351 52.3078 6.26204V10.3078H31.6922V6.26204ZM62.6156 50.5598C62.6156 51.2432 62.3441 51.8987 61.8608 52.382C61.3775 52.8652 60.7221 53.1367 60.0386 53.1367C59.3552 53.1367 58.6997 52.8652 58.2164 52.382C57.7332 51.8987 57.4617 51.2432 57.4617 50.5598V46.5397H31.6922V41.2312H57.4617V35.8712H62.6156V50.5598Z" fill="#232221"/>
</svg>
