<svg width="61" height="48" viewBox="0 0 61 48" fill="none" xmlns="http://www.w3.org/2000/svg">
<path d="M45.756 17.9995H31.5048V23.2499C31.5048 26.9721 28.4764 30.0005 24.7542 30.0005C21.032 30.0005 18.0037 26.9721 18.0037 23.2499V11.849L11.9188 15.5055C10.1092 16.5837 9.0029 18.5433 9.0029 20.6435V25.0782L1.50227 29.4098C0.067769 30.2349 -0.429148 32.0726 0.405297 33.507L7.90593 46.5019C8.731 47.9364 10.5687 48.4239 12.0032 47.5989L21.6977 42.0015H34.5051C37.8147 42.0015 40.5056 39.3107 40.5056 36.001H42.0057C43.6652 36.001 45.0059 34.6603 45.0059 33.0008V27.0003H45.756C47.003 27.0003 48.0062 25.997 48.0062 24.7501V20.2497C48.0062 19.0027 47.003 17.9995 45.756 17.9995ZM59.604 14.4929L52.1034 1.4981C51.2783 0.0636023 49.4407 -0.423939 48.0062 0.401131L38.3116 5.99848H28.7296C27.6045 5.99848 26.5075 6.31726 25.5512 6.90793L22.4103 8.86747C21.529 9.41127 21.0039 10.377 21.0039 11.4083V23.2499C21.0039 25.322 22.6822 27.0003 24.7542 27.0003C26.8263 27.0003 28.5045 25.322 28.5045 23.2499V14.9992H45.756C48.6531 14.9992 51.0064 17.3526 51.0064 20.2497V22.9218L58.5071 18.5902C59.9416 17.7557 60.4291 15.9274 59.604 14.4929Z" fill="#232221"/>
</svg>
