<svg width="16" height="21" viewBox="0 0 16 21" fill="none" xmlns="http://www.w3.org/2000/svg">
<path d="M8.00005 12.5001C10.206 12.5001 12 10.7061 12 8.50011C12 6.29413 10.206 4.50015 8.00005 4.50015C5.79407 4.50015 4.00009 6.29413 4.00009 8.50011C4.00009 10.7061 5.79407 12.5001 8.00005 12.5001ZM8.00005 6.50013C9.10304 6.50013 10 7.39712 10 8.50011C10 9.6031 9.10304 10.5001 8.00005 10.5001C6.89706 10.5001 6.00007 9.6031 6.00007 8.50011C6.00007 7.39712 6.89706 6.50013 8.00005 6.50013Z" fill="black"/>
<path d="M7.42001 20.314C7.58925 20.4348 7.79203 20.4998 8 20.4998C8.20797 20.4998 8.41075 20.4348 8.57999 20.314C8.88399 20.099 16.0289 14.94 15.9999 8.5001C15.9999 4.08914 12.411 0.500183 8 0.500183C3.58905 0.500183 8.80368e-05 4.08914 8.80368e-05 8.4951C-0.0289116 14.94 7.11601 20.099 7.42001 20.314ZM8 2.50016C11.309 2.50016 13.9999 5.19113 13.9999 8.5051C14.0209 12.943 9.61198 16.928 8 18.235C6.38902 16.927 1.97907 12.941 2.00007 8.5001C2.00007 5.19113 4.69104 2.50016 8 2.50016Z" fill="black"/>
</svg>
