<svg width="65" height="64" viewBox="0 0 65 64" fill="none" xmlns="http://www.w3.org/2000/svg">
<g clip-path="url(#clip0_7_267)">
<path d="M11.1667 10.6667H27.1667V26.6667H11.1667V10.6667ZM53.8333 10.6667V26.6667H37.8333V10.6667H53.8333ZM37.8333 40H43.1667V34.6667H37.8333V29.3333H43.1667V34.6667H48.5V29.3333H53.8333V34.6667H48.5V40H53.8333V48H48.5V53.3333H43.1667V48H35.1667V53.3333H29.8333V42.6667H37.8333V40ZM43.1667 40V48H48.5V40H43.1667ZM11.1667 53.3333V37.3333H27.1667V53.3333H11.1667ZM16.5 16V21.3333H21.8333V16H16.5ZM43.1667 16V21.3333H48.5V16H43.1667ZM16.5 42.6667V48H21.8333V42.6667H16.5ZM11.1667 29.3333H16.5V34.6667H11.1667V29.3333ZM24.5 29.3333H35.1667V40H29.8333V34.6667H24.5V29.3333ZM29.8333 16H35.1667V26.6667H29.8333V16ZM5.83333 5.33333V16H0.5V5.33333C0.5 3.91885 1.0619 2.56229 2.0621 1.5621C3.06229 0.561903 4.41885 0 5.83333 0L16.5 0V5.33333H5.83333ZM59.1667 0C60.5812 0 61.9377 0.561903 62.9379 1.5621C63.9381 2.56229 64.5 3.91885 64.5 5.33333V16H59.1667V5.33333H48.5V0H59.1667ZM5.83333 48V58.6667H16.5V64H5.83333C4.41885 64 3.06229 63.4381 2.0621 62.4379C1.0619 61.4377 0.5 60.0812 0.5 58.6667V48H5.83333ZM59.1667 58.6667V48H64.5V58.6667C64.5 60.0812 63.9381 61.4377 62.9379 62.4379C61.9377 63.4381 60.5812 64 59.1667 64H48.5V58.6667H59.1667Z" fill="#FFC510"/>
</g>
<defs>
<clipPath id="clip0_7_267">
<rect width="64" height="64" fill="white" transform="translate(0.5)"/>
</clipPath>
</defs>
</svg>
